<svg xmlns="http://www.w3.org/2000/svg" xmlns:xlink="http://www.w3.org/1999/xlink" version="1.1" x="0px" y="0px" viewBox="0 0 100 125" enable-background="new 0 0 100 100" xml:space="preserve"><g><path d="M79,59.57c0-12.297-7.662-22.826-18.45-27.065h7.7l0.3-0.445c0.133-0.886,0.2-1.793,0.2-2.695c0-9.925-8.075-18-18-18   s-18,8.075-18,18c0,0.904,0.067,1.81,0.201,2.694l0.299,0.446h6.198c-4.555,1.79-8.552,4.699-11.65,8.394h-0.027   c0,0.01,0.001,0.021,0.001,0.031C23.549,45.979,21,52.481,21,59.57c0,16.026,13.009,29.064,28.999,29.064   c7.156,0,13.711-2.616,18.774-6.938c0.044,0,0.087,0.004,0.131,0.004v-0.117C75.079,76.249,79,68.362,79,59.57z M33.884,31.505   c-0.089-0.706-0.134-1.423-0.134-2.14c0-9.374,7.626-17,17-17s17,7.626,17,17c0,0.715-0.045,1.433-0.133,2.14H57.53   c0,0-4.926,0.01-7.531,0.01c-2.604,0-7.531-0.01-7.531-0.01H33.884z M42.607,32.505h14.784c5.023,1.38,9.485,4.13,12.963,7.824   c-4.186,8.112-11.02,13.979-18.885,17.083c-2.344-2.611-5.732-4.266-9.509-4.266c-3.794,0-7.197,1.67-9.541,4.303   c-2.284-4.932-3.583-10.399-3.64-16.16C32.368,37.112,37.157,34.002,42.607,32.505z M31.716,58.314   c-0.216,0.289-0.419,0.586-0.609,0.893c-3.021-0.623-6.008-1.645-8.885-3.104c0.628-5.084,2.615-9.75,5.59-13.622   C28.029,48.126,29.405,53.479,31.716,58.314z M49.999,87.635C34.561,87.635,22,75.045,22,59.57c0-0.814,0.042-1.618,0.11-2.414   c2.753,1.361,5.598,2.339,8.478,2.959c-0.898,1.749-1.415,3.724-1.415,5.82c0,7.052,5.736,12.789,12.788,12.789   c2.604,0,5.027-0.786,7.05-2.13c5.444,2.998,11.64,4.802,18.231,5.063C62.484,85.397,56.499,87.635,49.999,87.635z M68.412,80.687   c-6.688-0.08-12.987-1.784-18.513-4.742c2.95-2.345,4.851-5.957,4.851-10.009c0-2.903-0.983-5.574-2.619-7.723   c7.852-3.177,14.671-9.041,18.933-17.103C75.377,46.048,78,52.506,78,59.57C78,67.983,74.282,75.538,68.412,80.687z"/><path d="M54.702,21.615c0-2.435-1.981-4.417-4.417-4.417c-2.435,0-4.416,1.981-4.416,4.417s1.981,4.417,4.416,4.417   C52.721,26.032,54.702,24.05,54.702,21.615z"/></g><text x="0" y="115" fill="#000000" font-size="5px" font-weight="bold" font-family="'Helvetica Neue', Helvetica, Arial-Unicode, Arial, Sans-serif">Created by chiara galli</text><text x="0" y="120" fill="#000000" font-size="5px" font-weight="bold" font-family="'Helvetica Neue', Helvetica, Arial-Unicode, Arial, Sans-serif">from the Noun Project</text></svg>